<?xml version="1.0" encoding="UTF-8" standalone="no"?>
<!-- Created with Inkscape (http://www.inkscape.org/) -->

<svg
   width="101.59999mm"
   height="88.900002mm"
   viewBox="0 0 101.59999 88.900002"
   version="1.1"
   id="svg5"
   inkscape:version="1.3 (0e150ed6c4, 2023-07-21)"
   sodipodi:docname="Derailed.svg"
   inkscape:export-filename="C:\Users\Sass\Desktop\Derailed.png"
   inkscape:export-xdpi="95.999992"
   inkscape:export-ydpi="95.999992"
   xml:space="preserve"
   xmlns:inkscape="http://www.inkscape.org/namespaces/inkscape"
   xmlns:sodipodi="http://sodipodi.sourceforge.net/DTD/sodipodi-0.dtd"
   xmlns="http://www.w3.org/2000/svg"
   xmlns:svg="http://www.w3.org/2000/svg"><sodipodi:namedview
     id="namedview7"
     pagecolor="#505050"
     bordercolor="#ffffff"
     borderopacity="1"
     inkscape:pageshadow="0"
     inkscape:pageopacity="0"
     inkscape:pagecheckerboard="1"
     inkscape:document-units="px"
     showgrid="false"
     inkscape:snap-bbox="true"
     inkscape:bbox-paths="true"
     inkscape:bbox-nodes="true"
     inkscape:snap-bbox-edge-midpoints="true"
     inkscape:snap-bbox-midpoints="true"
     inkscape:zoom="0.26740452"
     inkscape:cx="1394.8904"
     inkscape:cy="3143.178"
     inkscape:window-width="1920"
     inkscape:window-height="986"
     inkscape:window-x="-11"
     inkscape:window-y="-11"
     inkscape:window-maximized="1"
     inkscape:current-layer="layer1"
     inkscape:snap-smooth-nodes="true"
     inkscape:snap-midpoints="true"
     inkscape:snap-nodes="true"
     inkscape:showpageshadow="0"
     inkscape:deskcolor="#505050" /><defs
     id="defs2" /><g
     inkscape:label="Kiht 1"
     inkscape:groupmode="layer"
     id="layer1"
     transform="translate(-217.99672,-780.37644)"><path
       id="path98707-1-0-2-3-9-9"
       style="fill:#7364ff;fill-opacity:1;fill-rule:evenodd;stroke:none;stroke-width:0.158521"
       d="m 268.79668,869.27644 c -12.69999,0 -29.73311,-10.6832 -38.09996,-19.05007 -8.36685,-8.36685 -12.7,-12.69999 -12.7,-25.39997 0,-12.69999 7.30713,-17.9178 12.7,-25.39999 5.39288,-7.48219 11.56644,-19.04998 19.04998,-19.04998 7.48354,0 10.95218,4.1848 12.69997,12.69999 1.74782,8.51519 -18.90584,25.16834 -12.69997,31.74998 6.20587,6.58164 12.35649,-6.35 19.04998,-6.35 6.69349,0 12.84411,12.93164 19.04998,6.35 6.20586,-6.58164 -14.44778,-23.23479 -12.69999,-31.74998 1.74783,-8.51519 5.21643,-12.69999 12.69999,-12.69999 7.48355,-10e-6 13.65718,11.56779 19.05005,19.04998 5.39288,7.48219 12.7,12.7 12.7,25.39999 0,12.69999 -4.33315,17.03312 -12.7,25.39998 -8.36685,8.36687 -25.40003,19.05006 -38.10003,19.05006 z m 31.75003,-44.45005 c 0.0104,6.94525 -5.75491,12.7 -12.70005,12.69999 -6.94515,0 -12.70699,-5.75464 -12.69999,-12.69999 0.007,-6.94535 5.73735,-12.6999 12.69999,-12.69999 6.96266,-10e-5 12.6896,5.75474 12.70005,12.69999 z m -38.10004,0 c -10e-6,6.35 -5.76154,12.70003 -12.69997,12.69999 -6.93844,-4e-5 -12.69999,-5.75468 -12.69999,-12.69999 0,-6.94531 5.74439,-12.69993 12.69999,-12.69999 6.9556,-7e-5 12.70002,6.34999 12.69997,12.69999 z"
       sodipodi:nodetypes="zzzzzzzzzzzzzzzzzzzzzzzzz"
       clip-path="none" /></g></svg>
